<svg width="16" height="16" viewBox="0 0 16 16" preserveAspectRatio="xMidYMid meet" style="display:none">

  <g id="addUrl">
    <path d="M15.893,11.447c0.102,0.109,0.133,0.271,0.087,0.418c-0.06,0.141-0.189,0.252-0.347,0.268l-2.08,0.224l1.018,2.524c0.04,0.1,0.042,0.217,0,0.314s-0.127,0.179-0.227,0.219l-1.383,0.559c-0.199,0.081-0.452-0.027-0.533-0.227l-1.02-2.524l-1.736,1.354c-0.124,0.096-0.28,0.113-0.42,0.054c0,0-0.016-0.007-0.023-0.026C9.088,14.542,8.998,14.404,9,14.24l0.005-8.994C9.01,5.082,9.108,4.925,9.268,4.861c0.16-0.064,0.342-0.021,0.458,0.094L15.893,11.447z M1.678,1C0.751,1,0,1.751,0,2.679v8.644C0,12.249,0.751,13,1.678,13H8v-1.983H2.319c-0.185,0-0.335-0.15-0.335-0.335V3.336C1.983,3.15,2.134,3,2.319,3H16V1H1.678z"></path>
  </g>

  <g id="analyzeData">
    <polygon opacity="0.1" points="2,14 5,14 5,5.515 2,7.7"></polygon><polygon opacity="0.1" points="6,14 9,14 9,7.7 6,5.515"></polygon><path opacity="0.1" d="M12.476,5.12L10,7.709V14h3V5.348C12.812,5.297,12.636,5.222,12.476,5.12z"></path><path opacity="0.25" d="M11.801,4.378L9.477,6.81L5.805,4.135L5.5,4.552L5.196,4.134L1.263,7H1v7h1 V7.7l3-2.185V14h1V5.515L9,7.7V14h1V7.709l2.476-2.589C12.189,4.938,11.958,4.682,11.801,4.378z"></path><path opacity="0.25" d="M13.5,5.422c-0.174,0-0.34-0.031-0.5-0.074V14h1V5.348 C13.84,5.391,13.674,5.422,13.5,5.422z"></path><rect x="1" y="14" width="13" height="1"></rect><circle cx="1.5" cy="7.5" r="1.5"></circle><circle cx="5.5" cy="4.5" r="1.5"></circle><circle cx="9.5" cy="7.5" r="1.5"></circle><path d="M13.5,1C12.12,1,11,2.119,11,3.5S12.12,6,13.5,6s2.498-1.119,2.498-2.5S14.88,1,13.5,1z M13.5,5C12.673,5,12,4.327,12,3.5 S12.673,2,13.5,2s1.498,0.673,1.498,1.5S14.327,5,13.5,5z"></path>
  </g>


</svg>
