<?xml version="1.0" encoding="utf-8"?>
<!-- Generator: Adobe Illustrator 21.1.0, SVG Export Plug-In . SVG Version: 6.00 Build 0)  -->
<svg version="1.1" id="icons" xmlns="http://www.w3.org/2000/svg" xmlns:xlink="http://www.w3.org/1999/xlink" x="0px" y="0px"
	 viewBox="0 0 300 300" style="enable-background:new 0 0 300 300;" xml:space="preserve">
<style type="text/css">
	.st0{display:none;}
	.st1{fill:#231F20;}
</style>
<path id="arrow-left" class="st0" d="M55,153.8c0.2-0.2,0.3-0.4,0.5-0.6c18.8-19.5,11.4-11.9,30.2-31.4c1-1.4,1.3-3,0.8-4.8
	c-0.5-2.3-2-3.9-4.3-4.5c-2.5-0.7-4.7,0.1-6.5,2c-21.1,21.9-16.1,16.8-37.2,38.7c-0.2,0.2-0.3,0.4-0.5,0.6c0.2,0.3,0.4,0.5,0.6,0.7
	c20.8,21.7,18.4,18.3,39.2,40c1.3,1.4,2.7,2.6,4.7,2.9c0.4,0,0.8,0,1.3-0.2c0.1-0.1,0.3-0.2,0.5-0.2c2.4-0.6,4.1-2.1,4.9-4.5
	c0.5-1.5,0.4-2.8-0.2-4c-18.9-19.7-14.6-14.3-33.4-34C55.4,154.3,55.2,154.1,55,153.8z M61.7,147.3c-1.9,1.6-3.9,3.5-6.2,5.9
	c-0.2,0.2-0.3,0.4-0.5,0.6c0.2,0.3,0.4,0.5,0.6,0.7c1.7,1.7,3.3,3.4,5,5.2h133.8c2.6-0.5,4.4-2.7,4.6-5.5c0.2-3.5-1.7-6.1-4.9-6.7
	c-0.8-0.1-1.6-0.1-2.4-0.1H78.2c0,0,0,0,0-0.1L61.7,147.3L61.7,147.3z"/>
<path id="arrow-right" d="M214.1,153.8c-0.2,0.2-0.3,0.4-0.5,0.6c-18.8,19.5-11.8,12.8-30.6,32.3c-1,1.4-1.3,3-0.8,4.8
	c0.5,2.3,2,3.9,4.3,4.5c2.5,0.7,4.7-0.1,6.5-2c21.1-21.9,16.5-17.7,37.6-39.6c0.2-0.2,0.3-0.4,0.5-0.6c-0.2-0.3-0.4-0.5-0.6-0.7
	c-20.8-21.7-16-16.4-36.8-38.1c-1.3-1.4-2.7-2.6-4.7-2.9c-0.4,0-0.8,0-1.3,0.2c-0.1,0.1-0.3,0.2-0.5,0.2c-2.4,0.6-4.1,2.1-4.9,4.5
	c-0.5,1.5-0.4,2.8,0.2,4c18.9,19.7,12.2,12.4,31,32.1C213.7,153.3,213.9,153.5,214.1,153.8z M207.4,160.3c1.9-1.6,3.9-3.5,6.2-5.9
	c0.2-0.2,0.3-0.4,0.5-0.6c-0.2-0.3-0.4-0.5-0.6-0.7c-1.7-1.7-3.3-3.4-5-5.2H59.3c-2.6,0.5-4.4,2.7-4.6,5.5c-0.2,3.5,1.7,6.1,4.9,6.7
	c0.8,0.1,1.6,0.1,2.4,0.1h128.9c0,0,0,0,0,0.1L207.4,160.3L207.4,160.3z"/>
<path id="zoom" d="M205.9,84.4c0,17.2,0,34.4,0,51.8c-6.6-6.7-12.9-13.1-19.1-19.4c-7,7-13.4,13.5-19.5,19.7
	c-4.7-4.7-8.6-8.7-12.7-12.7c5.9-5.8,12.4-12.3,19.2-19.1c-7.1-7.1-13.7-13.7-20.4-20.4C170.9,84.4,188.4,84.4,205.9,84.4z
	 M65.9,84.4c0,17.2,0,34.5,0,51.7c0.4,0.2,0.7,0.3,1.1,0.5c6.3-6.4,12.7-12.9,19.4-19.7c6.5,6.5,12.9,13,18.9,19.1
	c4.1-4.2,8.1-8.2,12.7-12.8c-6.3-6-12.8-12.4-19.5-18.8c6.7-6.7,13.3-13.3,19.9-19.9C100.9,84.4,83.4,84.4,65.9,84.4z M118.1,184.2
	c-4.1-4.1-8-8-12.5-12.6c-6.6,6.7-13.1,13.4-20.3,20.7c-6.5-6.6-12.8-13.1-19.2-19.6c0,17.1,0,34.2,0,51.3c17.3,0,34.4,0,52.3,0
	c-6.9-6.8-13.3-13.1-20.2-20C105,197.3,111.6,190.7,118.1,184.2z M153.9,224.1c17.5,0,34.7,0,51.7,0c0-17.3,0-34.4,0-52.2
	c-6.9,6.9-13.2,13.4-19.8,20c-6.8-6.8-13.3-13.4-19.6-19.7c-4.4,4.3-8.4,8.2-12.6,12.4c6.4,6.4,13,12.9,20.1,19.9
	C167,211.2,160.6,217.6,153.9,224.1z"/>
<path id="menu-old" class="st0" d="M76.8,106H223v16.5H76.8V106z M76.8,154.5H223V138H76.8V154.5z M76.8,186.4H223v-16.5H76.8V186.4
	z"/>
<path id="logo" class="st1" d="M137.8,141.1c0,2-0.4,3.6-1.3,4.7c-0.9,1.2-2.2,1.8-4,1.8h-16.2v-13.2h16.3
	C136.1,134.4,137.8,136.7,137.8,141.1z M228.9,149c0,10.8-2.1,21.3-6.3,31.1c-4,9.5-9.8,18.1-17.1,25.4
	c-7.3,7.3-15.9,13.1-25.4,17.1c-9.9,4.2-20.3,6.3-31.1,6.3s-21.3-2.1-31.1-6.3c-9.5-4-18.1-9.8-25.4-17.1s-13.1-15.9-17.1-25.4
	c-4.2-9.9-6.3-20.3-6.3-31.1s2.1-21.3,6.3-31.1c4-9.5,9.8-18.1,17.1-25.4c7.3-7.3,15.9-13.1,25.4-17.1c9.9-4.2,20.3-6.3,31.1-6.3
	s21.3,2.1,31.1,6.3c9.5,4,18.1,9.8,25.4,17.1c7.3,7.3,13.1,15.9,17.1,25.4C226.8,127.7,228.9,138.2,228.9,149z M148.1,170.7
	l-7.7-18.1c4.3-2.3,6.4-6.4,6.4-12.3c0-4.3-1.2-7.6-3.7-9.9c-2.4-2.3-5.9-3.5-10.3-3.5h-25.3V171h8.9v-16h15.5l6.6,16.1h9.6V170.7z
	 M195.6,127.2h-44v7.4h17.3v36.7h9.6v-36.7h17.1L195.6,127.2L195.6,127.2z M244,149c0,52.5-42.5,95-95,95s-95-42.5-95-95
	s42.5-95,95-95S244,96.5,244,149z M224.5,180.9c4.3-10.1,6.4-20.8,6.4-31.9s-2.2-21.8-6.4-31.9c-4.1-9.8-10-18.5-17.6-26
	c-7.5-7.5-16.3-13.4-26-17.6c-10.1-4.3-20.8-6.4-31.9-6.4s-21.8,2.2-31.9,6.4c-9.8,4.1-18.5,10-26,17.6c-7.5,7.5-13.4,16.3-17.6,26
	c-4.3,10.1-6.4,20.8-6.4,31.9s2.2,21.8,6.4,31.9c4.1,9.8,10,18.5,17.6,26c7.5,7.5,16.3,13.4,26,17.6c10.1,4.3,20.8,6.4,31.9,6.4
	s21.8-2.2,31.9-6.4c9.8-4.1,18.5-10,26-17.6S220.4,190.6,224.5,180.9z"/>
<path id="menu" d="M101,157c0,14.4-11.6,26-26,26s-26-11.6-26-26s11.6-26,26-26S101,142.6,101,157z M150,131c-14.4,0-26,11.6-26,26
	s11.6,26,26,26s26-11.6,26-26S164.4,131,150,131z M224,131c-14.4,0-26,11.6-26,26s11.6,26,26,26s26-11.6,26-26S238.4,131,224,131z"
	/>
</svg>
