<?xml version="1.0" encoding="utf-8"?>
<!-- Generator: Adobe Illustrator 21.1.0, SVG Export Plug-In . SVG Version: 6.00 Build 0)  -->
<svg version="1.1" id="icons" xmlns="http://www.w3.org/2000/svg" xmlns:xlink="http://www.w3.org/1999/xlink" x="0px" y="0px"
	 viewBox="0 0 300 300" style="enable-background:new 0 0 300 300;" xml:space="preserve">
<path id="arrow-left" d="M55,153.8c0.2-0.2,0.3-0.4,0.5-0.6c18.8-19.5,37.4-39,56.2-58.5c1-1.4,1.3-3,0.8-4.8
	c-0.5-2.3-2-3.9-4.3-4.5c-2.5-0.7-4.7,0.1-6.5,2c-21.1,21.9-42.1,43.9-63.2,65.8c-0.2,0.2-0.3,0.4-0.5,0.6c0.2,0.3,0.4,0.5,0.6,0.7
	c20.8,21.7,41.7,43.4,62.5,65.1c1.3,1.4,2.7,2.6,4.7,2.9c0.4,0,0.8,0,1.3-0.2c0.1-0.1,0.3-0.2,0.5-0.2c2.4-0.6,4.1-2.1,4.9-4.5
	c0.5-1.5,0.4-2.8-0.2-4c-18.9-19.7-37.9-39.4-56.7-59.1C55.4,154.3,55.2,154.1,55,153.8z M61.7,147.3c-1.9,1.6-3.9,3.5-6.2,5.9
	c-0.2,0.2-0.3,0.4-0.5,0.6c0.2,0.3,0.4,0.5,0.6,0.7c1.7,1.7,3.3,3.4,5,5.2h165.9c2.6-0.5,4.4-2.7,4.6-5.5c0.2-3.5-1.7-6.1-4.9-6.7
	c-0.8-0.1-1.6-0.1-2.4-0.1H78.2c0,0,0,0,0-0.1L61.7,147.3L61.7,147.3z"/>
<path id="arrow-right" d="M214.1,153.8c-0.2,0.2-0.3,0.4-0.5,0.6c-18.8,19.5-37.4,39-56.2,58.5c-1,1.4-1.3,3-0.8,4.8
	c0.5,2.3,2,3.9,4.3,4.5c2.5,0.7,4.7-0.1,6.5-2c21.1-21.9,42.1-43.9,63.2-65.8c0.2-0.2,0.3-0.4,0.5-0.6c-0.2-0.3-0.4-0.5-0.6-0.7
	c-20.8-21.7-41.7-43.4-62.5-65.1c-1.3-1.4-2.7-2.6-4.7-2.9c-0.4,0-0.8,0-1.3,0.2c-0.1,0.1-0.3,0.2-0.5,0.2c-2.4,0.6-4.1,2.1-4.9,4.5
	c-0.5,1.5-0.4,2.8,0.2,4c18.9,19.7,37.9,39.4,56.7,59.1C213.7,153.3,213.9,153.5,214.1,153.8z M207.4,160.3c1.9-1.6,3.9-3.5,6.2-5.9
	c0.2-0.2,0.3-0.4,0.5-0.6c-0.2-0.3-0.4-0.5-0.6-0.7c-1.7-1.7-3.3-3.4-5-5.2H42.6c-2.6,0.5-4.4,2.7-4.6,5.5c-0.2,3.5,1.7,6.1,4.9,6.7
	c0.8,0.1,1.6,0.1,2.4,0.1h145.6c0,0,0,0,0,0.1L207.4,160.3L207.4,160.3z"/>
<path id="zoom" d="M205.9,84.4c0,17.2,0,34.4,0,51.8c-6.6-6.7-12.9-13.1-19.1-19.4c-7,7-13.4,13.5-19.5,19.7
	c-4.7-4.7-8.6-8.7-12.7-12.7c5.9-5.8,12.4-12.3,19.2-19.1c-7.1-7.1-13.7-13.7-20.4-20.4C170.9,84.4,188.4,84.4,205.9,84.4z
	 M65.9,84.4c0,17.2,0,34.5,0,51.7c0.4,0.2,0.7,0.3,1.1,0.5c6.3-6.4,12.7-12.9,19.4-19.7c6.5,6.5,12.9,13,18.9,19.1
	c4.1-4.2,8.1-8.2,12.7-12.8c-6.3-6-12.8-12.4-19.5-18.8c6.7-6.7,13.3-13.3,19.9-19.9C100.9,84.4,83.4,84.4,65.9,84.4z M118.1,184.2
	c-4.1-4.1-8-8-12.5-12.6c-6.6,6.7-13.1,13.4-20.3,20.7c-6.5-6.6-12.8-13.1-19.2-19.6c0,17.1,0,34.2,0,51.3c17.3,0,34.4,0,52.3,0
	c-6.9-6.8-13.3-13.1-20.2-20C105,197.3,111.6,190.7,118.1,184.2z M153.9,224.1c17.5,0,34.7,0,51.7,0c0-17.3,0-34.4,0-52.2
	c-6.9,6.9-13.2,13.4-19.8,20c-6.8-6.8-13.3-13.4-19.6-19.7c-4.4,4.3-8.4,8.2-12.6,12.4c6.4,6.4,13,12.9,20.1,19.9
	C167,211.2,160.6,217.6,153.9,224.1z"/>
</svg>
