<?xml version="1.0" encoding="utf-8"?>
<!-- Generator: Adobe Illustrator 21.1.0, SVG Export Plug-In . SVG Version: 6.00 Build 0)  -->
<svg version="1.1" id="metric-icons" xmlns="http://www.w3.org/2000/svg" xmlns:xlink="http://www.w3.org/1999/xlink" x="0px"
	 y="0px" viewBox="0 0 300 300" enable-background="new 0 0 300 300" xml:space="preserve">
<path id="arrow-left" d="M55,153.8c0.2-0.2,0.3-0.4,0.5-0.6c18.8-19.5,37.4-39,56.2-58.5c1-1.4,1.3-3,0.8-4.8
	c-0.5-2.3-2-3.9-4.3-4.5c-2.5-0.7-4.7,0.1-6.5,2c-21.1,21.9-42.1,43.9-63.2,65.8c-0.2,0.2-0.3,0.4-0.5,0.6c0.2,0.3,0.4,0.5,0.6,0.7
	c20.8,21.7,41.7,43.4,62.5,65.1c1.3,1.4,2.7,2.6,4.7,2.9c0.4,0,0.8,0,1.3-0.2c0.1-0.1,0.3-0.2,0.5-0.2c2.4-0.6,4.1-2.1,4.9-4.5
	c0.5-1.5,0.4-2.8-0.2-4c-18.9-19.7-37.9-39.4-56.7-59.1C55.4,154.3,55.2,154.1,55,153.8z M61.7,147.3c-1.9,1.6-3.9,3.5-6.2,5.9
	c-0.2,0.2-0.3,0.4-0.5,0.6c0.2,0.3,0.4,0.5,0.6,0.7c1.7,1.7,3.3,3.4,5,5.2h165.9c2.6-0.5,4.4-2.7,4.6-5.5c0.2-3.5-1.7-6.1-4.9-6.7
	c-0.8-0.1-1.6-0.1-2.4-0.1H78.2c0,0,0,0,0-0.1L61.7,147.3L61.7,147.3z"/>
<path id="arrow-right" d="M214.1,153.8c-0.2,0.2-0.3,0.4-0.5,0.6c-18.8,19.5-37.4,39-56.2,58.5c-1,1.4-1.3,3-0.8,4.8
	c0.5,2.3,2,3.9,4.3,4.5c2.5,0.7,4.7-0.1,6.5-2c21.1-21.9,42.1-43.9,63.2-65.8c0.2-0.2,0.3-0.4,0.5-0.6c-0.2-0.3-0.4-0.5-0.6-0.7
	c-20.8-21.7-41.7-43.4-62.5-65.1c-1.3-1.4-2.7-2.6-4.7-2.9c-0.4,0-0.8,0-1.3,0.2c-0.1,0.1-0.3,0.2-0.5,0.2c-2.4,0.6-4.1,2.1-4.9,4.5
	c-0.5,1.5-0.4,2.8,0.2,4c18.9,19.7,37.9,39.4,56.7,59.1C213.7,153.3,213.9,153.5,214.1,153.8z M207.4,160.3c1.9-1.6,3.9-3.5,6.2-5.9
	c0.2-0.2,0.3-0.4,0.5-0.6c-0.2-0.3-0.4-0.5-0.6-0.7c-1.7-1.7-3.3-3.4-5-5.2H42.6c-2.6,0.5-4.4,2.7-4.6,5.5c-0.2,3.5,1.7,6.1,4.9,6.7
	c0.8,0.1,1.6,0.1,2.4,0.1h145.6c0,0,0,0,0,0.1L207.4,160.3L207.4,160.3z"/>
</svg>
